<?xml version="1.0" encoding="utf-8"?>
<!-- Generator: Adobe Illustrator 26.0.1, SVG Export Plug-In . SVG Version: 6.00 Build 0)  -->
<svg version="1.1" id="Layer_1" xmlns="http://www.w3.org/2000/svg" xmlns:xlink="http://www.w3.org/1999/xlink" x="0px" y="0px"
	 viewBox="0 0 486.54 800" style="enable-background:new 0 0 486.54 800;" xml:space="preserve">
<style type="text/css">
	.st0{fill:#FFFFFF;}
</style>
<g>
	
		<rect x="149.1" y="652.78" transform="matrix(0.7071 0.7071 -0.7071 0.7071 539.2652 71.6767)" class="st0" width="68.01" height="68.01"/>
	
		<rect x="209.22" y="712.9" transform="matrix(0.7071 0.7071 -0.7071 0.7071 599.3804 46.7763)" class="st0" width="68.01" height="68.01"/>
	
		<rect x="269.34" y="652.78" transform="matrix(0.7071 0.7071 -0.7071 0.7071 574.4799 -13.3389)" class="st0" width="68.01" height="68.01"/>
	
		<rect x="209.22" y="592.67" transform="matrix(0.7071 0.7071 -0.7071 0.7071 514.3647 11.5616)" class="st0" width="68.01" height="68.01"/>
	
		<rect x="329.45" y="592.67" transform="matrix(0.7071 0.7071 -0.7071 0.7071 549.5794 -73.454)" class="st0" width="68.01" height="68.01"/>
	
		<rect x="269.34" y="532.55" transform="matrix(0.7071 0.7071 -0.7071 0.7071 489.4643 -48.5536)" class="st0" width="68.01" height="68.01"/>
	
		<rect x="88.99" y="592.67" transform="matrix(0.7071 0.7071 -0.7071 0.7071 479.1501 96.5772)" class="st0" width="68.01" height="68.01"/>
	
		<rect x="149.1" y="532.55" transform="matrix(0.7071 0.7071 -0.7071 0.7071 454.2496 36.4621)" class="st0" width="68.01" height="68.01"/>
	
		<rect x="209.22" y="472.44" transform="matrix(0.7071 0.7071 -0.7071 0.7071 429.3491 -23.6531)" class="st0" width="68.01" height="68.01"/>
	<g>
		
			<rect x="88.99" y="472.44" transform="matrix(0.7071 0.7071 -0.7071 0.7071 394.1344 61.3625)" class="st0" width="68.01" height="68.01"/>
		<path class="st0" d="M10.88,546.43l39.98-39.98l-39.98-39.98C1.69,492.27,1.69,520.61,10.88,546.43z"/>
		<path class="st0" d="M62.88,494.42l48.09-48.09l-44.59-44.59c-9.89,5.35-19.19,12.18-27.55,20.54
			c-8.36,8.36-15.19,17.66-20.54,27.55L62.88,494.42z"/>
		<path class="st0" d="M123,434.31l39.98-39.98c-25.81-9.18-54.15-9.18-79.96,0L123,434.31z"/>
		<path class="st0" d="M110.97,566.56L110.97,566.56l-48.09-48.09l-44.59,44.59c5.35,9.89,12.18,19.19,20.54,27.55l0.01,0.01
			c0.03,0.03,0.05,0.05,0.08,0.08l0,0l24.05,24.05l48.09-48.09L110.97,566.56z"/>
		<path class="st0" d="M207.24,422.37L207.24,422.37c-0.03-0.03-0.06-0.06-0.08-0.08c-8.36-8.36-17.66-15.19-27.55-20.54
			l-44.59,44.59l24.13,24.13l23.96,23.96l0.08,0.08l48.09-48.09L207.24,422.37z"/>
	</g>
	<g>
		
			<rect x="329.53" y="472.35" transform="matrix(-0.7071 0.7071 -0.7071 -0.7071 978.653 607.3474)" class="st0" width="68.01" height="68.01"/>
		<path class="st0" d="M323.56,394.24l39.98,39.98l39.98-39.98C377.71,385.05,349.37,385.05,323.56,394.24z"/>
		<path class="st0" d="M375.56,446.24l48.09,48.09l44.59-44.59c-5.35-9.89-12.18-19.19-20.54-27.55
			c-8.36-8.36-17.66-15.19-27.55-20.54L375.56,446.24z"/>
		<path class="st0" d="M435.68,506.36l39.98,39.98c9.18-25.81,9.18-54.15,0-79.96L435.68,506.36z"/>
		<path class="st0" d="M303.43,494.34L303.43,494.34l48.09-48.09l-44.59-44.59c-9.89,5.35-19.19,12.18-27.55,20.54l-0.01,0.01
			c-0.03,0.03-0.05,0.05-0.08,0.08l0,0l-24.05,24.05l48.09,48.09L303.43,494.34z"/>
		<path class="st0" d="M447.62,590.6L447.62,590.6c0.03-0.03,0.06-0.06,0.08-0.08c8.36-8.36,15.19-17.66,20.54-27.55l-44.59-44.59
			l-24.13,24.13l-23.96,23.96l-0.08,0.08l48.09,48.09L447.62,590.6z"/>
	</g>
	<polygon class="st0" points="243.23,293.74 208.62,189.93 243.23,5 277.83,189.93 	"/>
	<polygon class="st0" points="162.75,344.71 323.56,344.71 423.68,257.45 	"/>
	<polygon class="st0" points="261.3,293.74 364.12,259.15 398.39,155.38 295.57,189.97 	"/>
	<polygon class="st0" points="225.02,293.74 122.19,259.15 87.92,155.38 190.74,189.97 	"/>
	<g>
		<polygon class="st0" points="216.36,308.86 62.63,257.45 147.9,331.76 		"/>
	</g>
	<polygon class="st0" points="243.49,396.66 295.57,361.83 190.74,361.83 	"/>
</g>
</svg>
