<?xml version="1.0" encoding="utf-8"?>
<!-- Generator: Adobe Illustrator 26.0.0, SVG Export Plug-In . SVG Version: 6.00 Build 0)  -->
<svg version="1.1" id="Layer_1" xmlns="http://www.w3.org/2000/svg" xmlns:xlink="http://www.w3.org/1999/xlink" x="0px" y="0px"
	 viewBox="0 0 800 184" style="enable-background:new 0 0 800 184;" xml:space="preserve">
<style type="text/css">
	.st0{fill:#FFFFFF;}
</style>
<g>
	<g>
		
			<rect x="28.73" y="125.2" transform="matrix(0.7071 0.7071 -0.7071 0.7071 103.436 13.6641)" class="st0" width="12.99" height="12.99"/>
		
			<rect x="40.21" y="136.68" transform="matrix(0.7071 0.7071 -0.7071 0.7071 114.9139 8.9098)" class="st0" width="12.99" height="12.99"/>
		
			<rect x="51.69" y="125.2" transform="matrix(0.7071 0.7071 -0.7071 0.7071 110.1596 -2.5681)" class="st0" width="12.99" height="12.99"/>
		
			<rect x="40.21" y="113.72" transform="matrix(0.7071 0.7071 -0.7071 0.7071 98.6817 2.1862)" class="st0" width="12.99" height="12.99"/>
		
			<rect x="63.16" y="113.72" transform="matrix(0.7071 0.7071 -0.7071 0.7071 105.4053 -14.046)" class="st0" width="12.99" height="12.99"/>
		
			<rect x="51.69" y="102.24" transform="matrix(0.7071 0.7071 -0.7071 0.7071 93.9274 -9.2917)" class="st0" width="12.99" height="12.99"/>
		
			<rect x="17.25" y="113.72" transform="matrix(0.7071 0.7071 -0.7071 0.7071 91.958 18.4184)" class="st0" width="12.99" height="12.99"/>
		
			<rect x="28.73" y="102.24" transform="matrix(0.7071 0.7071 -0.7071 0.7071 87.2037 6.9405)" class="st0" width="12.99" height="12.99"/>
		
			<rect x="40.21" y="90.76" transform="matrix(0.7071 0.7071 -0.7071 0.7071 82.4494 -4.5374)" class="st0" width="12.99" height="12.99"/>
		<g>
			
				<rect x="17.25" y="90.76" transform="matrix(0.7071 0.7071 -0.7071 0.7071 75.7258 11.6948)" class="st0" width="12.99" height="12.99"/>
			<path class="st0" d="M2.34,104.89l7.63-7.63l-7.63-7.63C0.59,94.55,0.59,99.96,2.34,104.89z"/>
			<path class="st0" d="M12.27,94.96l9.18-9.18l-8.51-8.51c-1.89,1.02-3.66,2.33-5.26,3.92s-2.9,3.37-3.92,5.26L12.27,94.96z"/>
			<path class="st0" d="M23.75,83.48l7.63-7.63c-4.93-1.75-10.34-1.75-15.27,0L23.75,83.48z"/>
			<path class="st0" d="M21.45,108.73L21.45,108.73l-9.18-9.18l-8.51,8.51c1.02,1.89,2.33,3.66,3.92,5.26l0,0
				c0.01,0.01,0.01,0.01,0.02,0.01l0,0l4.59,4.59l9.18-9.18L21.45,108.73z"/>
			<path class="st0" d="M39.83,81.2L39.83,81.2c-0.01,0-0.01-0.01-0.02-0.02c-1.6-1.6-3.37-2.9-5.26-3.92l-8.51,8.51l4.61,4.61
				l4.58,4.58l0.02,0.02l9.18-9.18L39.83,81.2z"/>
		</g>
		<g>
			
				<rect x="63.18" y="90.75" transform="matrix(-0.7071 0.7071 -0.7071 -0.7071 187.6999 116.7331)" class="st0" width="12.99" height="12.99"/>
			<path class="st0" d="M62.04,75.83l7.63,7.63l7.63-7.63C72.38,74.08,66.97,74.08,62.04,75.83z"/>
			<path class="st0" d="M71.97,85.76l9.18,9.18l8.51-8.51c-1.02-1.89-2.33-3.66-3.92-5.26c-1.6-1.6-3.37-2.9-5.26-3.92L71.97,85.76z
				"/>
			<path class="st0" d="M83.45,97.24l7.63,7.63c1.75-4.93,1.75-10.34,0-15.27L83.45,97.24z"/>
			<path class="st0" d="M58.2,94.94L58.2,94.94l9.18-9.18l-8.51-8.51c-1.89,1.02-3.66,2.33-5.26,3.92l0,0
				c-0.01,0.01-0.01,0.01-0.01,0.02l0,0L49,85.78l9.18,9.18L58.2,94.94z"/>
			<path class="st0" d="M85.73,113.33L85.73,113.33c0-0.01,0.01-0.01,0.02-0.02c1.6-1.6,2.9-3.37,3.92-5.26l-8.51-8.51l-4.61,4.61
				l-4.58,4.58l-0.02,0.02l9.18,9.18L85.73,113.33z"/>
		</g>
		<polygon class="st0" points="46.7,56.65 40.1,36.82 46.7,1.52 53.31,36.82 		"/>
		<polygon class="st0" points="31.34,66.38 62.04,66.38 81.16,49.72 		"/>
		<polygon class="st0" points="50.15,56.65 69.78,50.04 76.33,30.23 56.7,36.83 		"/>
		<polygon class="st0" points="43.22,56.65 23.59,50.04 17.05,30.23 36.68,36.83 		"/>
		<g>
			<polygon class="st0" points="41.57,59.53 12.22,49.72 28.5,63.9 			"/>
		</g>
		<polygon class="st0" points="46.75,76.29 56.7,69.65 36.68,69.65 		"/>
	</g>
	<g>
		<path class="st0" d="M147.76,90.78c-6.52,0-12.76,1.41-18.54,4.2l-0.66,0.32l3.1,5.42l0.56-0.24c1.83-0.79,8.39-3.35,15.78-3.35
			c10.15,0,16.7,5.36,16.7,13.66v6.97c-4.77-4.03-11.47-6.31-18.65-6.31c-9.89,0-24.52,6.21-24.52,19.53
			c0,9.85,6.45,21.35,24.64,21.35c10.37,0,19.26-3.05,25.03-8.58l0.21-0.2v-31.18C171.43,102.32,168.74,90.78,147.76,90.78z
			 M146.43,145.98c-8.92,0-17.92-4.64-17.92-15c0-9.69,10.92-13.3,17.8-13.3c6.96,0,12.98,2.42,18.41,7.4v15.54
			C161.46,143.11,155.71,145.98,146.43,145.98z"/>
		<path class="st0" d="M214.88,90.78c-9.06,0-17.55,2.86-23.9,8.06l-0.25,0.21v82.84h6.72v-37.25c4.37,3.9,12.2,7.71,20.6,7.71
			c18.81,0,28.65-15.33,28.65-30.47C246.69,100.5,230.2,90.78,214.88,90.78z M218.04,145.98c-9.26,0-16.98-5.23-20.6-10.47v-33.5
			c3.21-2.39,10.53-4.88,16.7-4.88c15.3,0,25.58,9.99,25.58,24.85C239.73,136.11,230.81,145.98,218.04,145.98z"/>
		<path class="st0" d="M289.41,90.78c-17.92,0-29.5,12.25-29.5,31.2c0,17.59,12.46,30.35,29.62,30.35
			c10.39,0,19.19-3.91,24.14-10.74l0.34-0.46l-3.99-4.15l-0.48,0.63c-1.5,1.96-7.32,8.37-18.91,8.37
			c-13.38,0-22.66-8.53-23.63-21.69c0-0.24-0.02-0.63-0.04-1.1c-0.03-0.58-0.06-1.26-0.07-1.98h48.39v-1.78
			C315.26,105.16,307.27,90.78,289.41,90.78z M267.33,114.97c0.13-0.83,0.31-1.55,0.49-2.3c2.49-9.44,10.77-15.54,21.1-15.54
			c12.23,0,17.88,9.08,19.16,17.84H267.33z"/>
		<path class="st0" d="M357.74,90.78c-7.04,0-13.43,2.31-19.01,6.86V49.8h-6.72v101.07h6.72v-45.76c1.64-1.65,8.26-7.62,18.16-7.62
			c11.85,0,16.46,4.96,16.46,17.68v35.7h6.72v-37.89C380.07,98.25,372.56,90.78,357.74,90.78z"/>
		<path class="st0" d="M421.45,90.78c-6.52,0-12.76,1.41-18.54,4.2l-0.66,0.32l3.1,5.42l0.56-0.24c1.83-0.79,8.39-3.35,15.78-3.35
			c10.15,0,16.7,5.36,16.7,13.66v6.97c-4.77-4.03-11.47-6.31-18.65-6.31c-9.89,0-24.52,6.21-24.52,19.53
			c0,9.85,6.45,21.35,24.64,21.35c10.37,0,19.26-3.05,25.03-8.58l0.21-0.2v-31.18C445.11,102.32,442.42,90.78,421.45,90.78z
			 M420.11,145.98c-8.92,0-17.92-4.64-17.92-15c0-9.69,10.92-13.3,17.8-13.3c6.96,0,12.98,2.42,18.41,7.4v15.54
			C435.15,143.11,429.39,145.98,420.11,145.98z"/>
		<path class="st0" d="M482.85,90.78c-5.03,0-9.36,3.8-11.48,6.96v-5.5h-6.72v58.64h6.72v-42.33c0.71-3.95,5.07-10.93,11.35-10.93
			c2.83,0,5.09,1.51,5.94,2.07l0.59,0.39l3.91-6.31l-0.61-0.35C491.63,92.89,487.02,90.78,482.85,90.78z"/>
		<path class="st0" d="M567.6,90.78c-6.36,0-14.3,3.44-20.46,8.82c-3.08-5.85-8.87-8.82-17.24-8.82c-7.15,0-14.2,4.09-17.8,6.89
			v-5.43h-6.72v58.64h6.72v-45.76c1.38-1.38,8.1-7.62,16.95-7.62c9.96,0,14.03,4.42,14.03,15.25v38.13h6.72v-38.98
			c0-2.32-0.22-4.45-0.66-6.34c3.92-3.74,10.08-8.05,17.6-8.05c9.96,0,14.03,4.42,14.03,15.25v38.13h6.72v-38.98
			C587.49,98.08,580.61,90.78,567.6,90.78z"/>
		<path class="st0" d="M635.07,90.78c-17.43,0-31.08,13.55-31.08,30.84c0,17.22,13.65,30.72,31.08,30.72
			c17.36,0,30.96-13.49,30.96-30.72C666.03,104.32,652.44,90.78,635.07,90.78z M634.83,97.25c13.59,0,24.24,10.7,24.24,24.36
			c0,14.5-9.74,24.24-24.24,24.24c-13.23,0-24-10.71-24-23.88C610.83,107.42,620.7,97.25,634.83,97.25z"/>
		<path class="st0" d="M708.75,90.78c-7.04,0-13.43,2.31-19.01,6.86v-5.4h-6.72v58.64h6.72v-45.76c1.64-1.65,8.26-7.62,18.16-7.62
			c11.85,0,16.46,4.96,16.46,17.68v35.7h6.72v-37.89C731.08,98.25,723.57,90.78,708.75,90.78z"/>
		<polygon class="st0" points="791.61,92.23 769.46,138.57 749.45,92.23 741.99,92.23 765.63,145.67 747.54,182.48 754.65,182.48 
			798.98,92.23 		"/>
	</g>
</g>
</svg>
