<svg xmlns="http://www.w3.org/2000/svg" viewBox="0 0 80.6 72.53"><defs><style>.cls-1{fill:#fff;}</style></defs><title>Asset 3</title><g id="Layer_2" data-name="Layer 2"><g id="Layer_1-2" data-name="Layer 1"><path class="cls-1" d="M38.07,72.53c-5.41,0-10.82,0-16.23,0A21.18,21.18,0,0,1,6.26,66,21.45,21.45,0,0,1,0,50.94c0-1.16.11-1.29,1.26-1.29H18.93c1.14,0,1.22.09,1.22,1.22a6.74,6.74,0,0,0,6.61,6.85c2.92.08,5.84,0,8.76,0,.6,0,.8-.26.8-.83,0-1.89,0-3.78,0-5.67,0-.67-.28-.87-.91-.86-2.37,0-4.74,0-7.11,0h-.86c-.36,0-.75,0-.94-.38s.05-.65.23-.93c.73-1.12,1.49-2.22,2.19-3.37a39.35,39.35,0,0,0,4.67-9.82,19.08,19.08,0,0,0,.54-6.69A50.36,50.36,0,0,0,30,13.73a71.84,71.84,0,0,0-3.46-7.25c-.14-.26-.43-.54-.21-.85s.62-.17.93-.09c2.65.71,5.31,1.43,8,2.16,1,.27,1.09.21,1.09-.8s0-2.16,0-3.23A3.62,3.62,0,0,1,39.88,0a3.7,3.7,0,0,1,3.77,3.56c.06,1.82,0,3.64,0,5.46a1.21,1.21,0,0,0,.82,1.36,12.09,12.09,0,0,1,2.77,2.14,53.76,53.76,0,0,1,9,9.55,24.76,24.76,0,0,1,3.72,7.4A12.48,12.48,0,0,1,59,38.68a34.77,34.77,0,0,1-5.57,7.89c-1,1.16-2.15,2.25-3.29,3.31a1.72,1.72,0,0,1-1.29.51c-1.46,0-2.92,0-4.38,0-.62,0-.84.22-.83.84,0,1.89,0,3.78,0,5.67,0,.62.2.86.83.85,2.1,0,4.21,0,6.32,0a7,7,0,0,0,4.8-2A44.35,44.35,0,0,0,59.39,52a1.8,1.8,0,0,1,.89-.58l19.17-5.51c.84-.24,1.12,0,1.14.83,0,1.12,0,2.25,0,3.37a1.12,1.12,0,0,1-.76,1.15,20.69,20.69,0,0,0-6.59,4.26,31.2,31.2,0,0,0-3.39,4.9,60.2,60.2,0,0,1-5.27,7.6A12.28,12.28,0,0,1,58,72.32a11.62,11.62,0,0,1-2.5.21Z"/><path class="cls-1" d="M14,42.34H6.38c-.24,0-.48,0-.71,0-.91,0-1.15-.44-.68-1.2.81-1.32,1.67-2.62,2.51-3.93q6.32-9.9,12.64-19.78c.6-1,1.2-1.91,1.83-2.84.42-.64.93-.61,1.23.08a58.55,58.55,0,0,1,4,12.62,16.17,16.17,0,0,1-2,11.27c-.63,1.1-1.28,2.19-1.91,3.29-.27.47-.7.5-1.18.5Z"/></g></g></svg>